<?xml version="1.0" encoding="UTF-8"?>
<!DOCTYPE svg PUBLIC "-//W3C//DTD SVG 1.1//EN" "http://www.w3.org/Graphics/SVG/1.1/DTD/svg11.dtd">
<!-- Creator: CorelDRAW 2018 (64-Bit Evaluation Version) -->
<svg xmlns="http://www.w3.org/2000/svg" xml:space="preserve" width="0.269551in" height="0.269551in" version="1.1" style="shape-rendering:geometricPrecision; text-rendering:geometricPrecision; image-rendering:optimizeQuality; fill-rule:evenodd; clip-rule:evenodd"
viewBox="0 0 87.14 87.14"
 xmlns:xlink="http://www.w3.org/1999/xlink">
 <defs>
  <style type="text/css">
   <![CDATA[
    .str0 {stroke:#373435;stroke-width:7.54;stroke-miterlimit:2.61313}
    .str2 {stroke:#373435;stroke-width:7.54;stroke-miterlimit:2.61313}
    .str1 {stroke:#373435;stroke-width:2.25;stroke-miterlimit:2.61313}
    .fil0 {fill:none}
    .fil1 {fill:#373435}
   ]]>
  </style>
 </defs>
 <g id="Layer_x0020_1">
  <metadata id="CorelCorpID_0Corel-Layer"/>
  <path class="fil0 str0" d="M43.57 3.77c21.98,0 39.8,17.82 39.8,39.8 0,21.98 -17.82,39.8 -39.8,39.8 -21.98,0 -39.8,-17.82 -39.8,-39.8 0,-21.98 17.82,-39.8 39.8,-39.8z"/>
  <polygon class="fil1 str1" points="7.52,26.68 79.63,26.68 79.63,33.52 7.52,33.52 "/>
  <polygon class="fil1 str1" points="6.84,52.08 78.95,52.08 78.95,58.92 6.84,58.92 "/>
  <path class="fil0 str2" d="M43.57 81.96c-8.66,-5.53 -14.87,-20.63 -14.87,-38.39 0,-17.76 6.21,-32.86 14.87,-38.39 8.66,5.53 14.87,20.63 14.87,38.39 0,17.76 -6.22,32.86 -14.87,38.39z"/>
 </g>
</svg>
