<?xml version="1.0" encoding="UTF-8"?>
<!DOCTYPE svg PUBLIC "-//W3C//DTD SVG 1.1//EN" "http://www.w3.org/Graphics/SVG/1.1/DTD/svg11.dtd">
<!-- Creator: CorelDRAW 2018 (64-Bit Evaluation Version) -->
<svg xmlns="http://www.w3.org/2000/svg" xml:space="preserve" width="8.5in" height="5.3125in" version="1.1" style="shape-rendering:geometricPrecision; text-rendering:geometricPrecision; image-rendering:optimizeQuality; fill-rule:evenodd; clip-rule:evenodd"
viewBox="0 0 8444.8 5278"
 xmlns:xlink="http://www.w3.org/1999/xlink">
 <defs>
  <style type="text/css">
   <![CDATA[
    .fil0 {fill:#373435}
   ]]>
  </style>
 </defs>
 <g id="Layer_x0020_1">
  <metadata id="CorelCorpID_0Corel-Layer"/>
  <path class="fil0" d="M248.38 5278l2390.63 0 0 -2111.2 -2639 0 0 1862.82c0,136.61 111.77,248.38 248.38,248.38zm7948.05 -5278c136.61,0 248.38,111.77 248.38,248.38l0 1862.82 -4750.2 0 0 -2111.2 4501.82 0zm248.38 5029.62c0,136.61 -111.77,248.38 -248.38,248.38l-4501.82 0 0 -2111.2 4750.2 0 0 1862.82zm-8444.8 -4781.25c0,-136.61 111.77,-248.38 248.38,-248.38l2390.63 0 0 2111.2 -2639 0 0 -1862.82z"/>
 </g>
</svg>
